# xmcd
#
# Track frame offsets:
#	150
#	14371
#	34252
#	48123
#	61944
#	80323
#	95018
#	115134
#	137088
#	154817
#	169849
#	182853
#	195338
#	212064
#	231284
#	248565
#	270356
#	283877
#	296554
#
# Disc length: 4257 seconds
#
# Revision: 1
# Processed by: cddbd v1.4PL0 Copyright (c) Steve Scherf et al.
# Submitted via: audiograbber 1.82.00
#
DISCID=0a109f13
DTITLE=The Acoustics Collection - Clarinet
DYEAR=2002
DGENRE=Classical
TTITLE0=Stanger On The Shore
TTITLE1=Yesterday
TTITLE2=We erOnly Just Begun
TTITLE3=Morning Has Broken
TTITLE4=I can't Stop Love You
TTITLE5=My Love is Belong To You
TTITLE6=Nights In White Saint
TTITLE7=Bridge Over Trouble Water
TTITLE8=Aria
TTITLE9=The Rose
TTITLE10=Jean
TTITLE11=Ramblin Rose
TTITLE12=My Way
TTITLE13=Hey Judy
TTITLE14=Awhite Shade of Pale
TTITLE15=You ve Got A Friend
TTITLE16=Lonly
TTITLE17=A Teste of Honey
TTITLE18=Everything I Do I Do It For You
EXTD=
EXTT0=
EXTT1=
EXTT2=
EXTT3=
EXTT4=
EXTT5=
EXTT6=
EXTT7=
EXTT8=
EXTT9=
EXTT10=
EXTT11=
EXTT12=
EXTT13=
EXTT14=
EXTT15=
EXTT16=
EXTT17=
EXTT18=
PLAYORDER=
